<mxfile host="app.diagrams.net" modified="2021-08-25T18:52:20.029Z" agent="5.0 (Macintosh; Intel Mac OS X 10_15_7) AppleWebKit/605.1.15 (KHTML, like Gecko) Version/14.0.1 Safari/605.1.15" etag="qK3RICUQkzijrbN_d_PL" version="14.9.6" type="github">
  <diagram id="0aD3OGQ6URokPovhukeh" name="Page-1">
    <mxGraphModel dx="815" dy="431" grid="1" gridSize="10" guides="1" tooltips="1" connect="1" arrows="1" fold="1" page="1" pageScale="1" pageWidth="827" pageHeight="1169" math="0" shadow="0">
      <root>
        <mxCell id="0" />
        <mxCell id="1" parent="0" />
        <mxCell id="gDA72CK2YQvZQ5YZSVt1-1" value="&lt;div class=&quot;page&quot; title=&quot;Page 1&quot;&gt;&lt;div class=&quot;section&quot; style=&quot;background-color: rgb(255 , 255 , 255)&quot;&gt;&lt;div class=&quot;layoutArea&quot;&gt;&lt;div class=&quot;column&quot;&gt;&lt;p&gt;&lt;span style=&quot;font-family: &amp;#34;calibri&amp;#34;&quot;&gt;&lt;font style=&quot;font-size: 10px&quot;&gt;Complex assembly/deassembly&lt;/font&gt;&lt;/span&gt;&lt;/p&gt;&lt;/div&gt;&lt;/div&gt;&lt;/div&gt;&lt;/div&gt;" style="text;html=1;align=center;verticalAlign=middle;resizable=0;points=[];autosize=1;strokeColor=none;" vertex="1" parent="1">
          <mxGeometry x="325" y="700" width="140" height="40" as="geometry" />
        </mxCell>
        <mxCell id="gDA72CK2YQvZQ5YZSVt1-2" value="&lt;div class=&quot;page&quot; title=&quot;Page 1&quot;&gt;&lt;div class=&quot;section&quot; style=&quot;background-color: rgb(255 , 255 , 255)&quot;&gt;&lt;div class=&quot;layoutArea&quot;&gt;&lt;div class=&quot;column&quot;&gt;&lt;p&gt;&lt;span style=&quot;font-family: &amp;#34;calibri&amp;#34;&quot;&gt;&lt;font style=&quot;font-size: 10px&quot;&gt;Product formation - phosphorylation&lt;/font&gt;&lt;/span&gt;&lt;/p&gt;&lt;/div&gt;&lt;/div&gt;&lt;/div&gt;&lt;/div&gt;" style="text;html=1;align=center;verticalAlign=middle;resizable=0;points=[];autosize=1;strokeColor=none;" vertex="1" parent="1">
          <mxGeometry x="325" y="650" width="160" height="40" as="geometry" />
        </mxCell>
        <mxCell id="gDA72CK2YQvZQ5YZSVt1-3" value="&lt;div class=&quot;page&quot; title=&quot;Page 1&quot;&gt;&lt;div class=&quot;section&quot; style=&quot;background-color: rgb(255 , 255 , 255)&quot;&gt;&lt;div class=&quot;layoutArea&quot;&gt;&lt;div class=&quot;column&quot;&gt;&lt;p&gt;&lt;span style=&quot;font-family: &amp;#34;calibri&amp;#34; ; font-size: 10px&quot;&gt;Product formation -&lt;/span&gt;&lt;span style=&quot;font-family: &amp;#34;calibri&amp;#34; ; font-size: 10px&quot;&gt;&amp;nbsp;d&lt;/span&gt;&lt;span style=&quot;font-family: &amp;#34;calibri&amp;#34;&quot;&gt;&lt;font style=&quot;font-size: 10px&quot;&gt;ephosphorylation&lt;/font&gt;&lt;/span&gt;&lt;/p&gt;&lt;/div&gt;&lt;/div&gt;&lt;/div&gt;&lt;/div&gt;" style="text;html=1;align=center;verticalAlign=middle;resizable=0;points=[];autosize=1;strokeColor=none;" vertex="1" parent="1">
          <mxGeometry x="325" y="675" width="170" height="40" as="geometry" />
        </mxCell>
        <mxCell id="gDA72CK2YQvZQ5YZSVt1-4" style="edgeStyle=orthogonalEdgeStyle;rounded=0;orthogonalLoop=1;jettySize=auto;html=1;endArrow=classic;endFill=1;" edge="1" parent="1">
          <mxGeometry relative="1" as="geometry">
            <mxPoint x="281" y="723" as="sourcePoint" />
            <mxPoint x="326" y="723" as="targetPoint" />
            <Array as="points">
              <mxPoint x="291" y="723" />
              <mxPoint x="291" y="723" />
            </Array>
          </mxGeometry>
        </mxCell>
        <mxCell id="gDA72CK2YQvZQ5YZSVt1-5" style="edgeStyle=orthogonalEdgeStyle;rounded=0;orthogonalLoop=1;jettySize=auto;html=1;endArrow=classic;endFill=1;strokeColor=#0000CC;" edge="1" parent="1">
          <mxGeometry relative="1" as="geometry">
            <mxPoint x="280" y="671.7600000000001" as="sourcePoint" />
            <mxPoint x="325" y="671.7600000000001" as="targetPoint" />
            <Array as="points">
              <mxPoint x="290" y="671.76" />
              <mxPoint x="290" y="671.76" />
            </Array>
          </mxGeometry>
        </mxCell>
        <mxCell id="gDA72CK2YQvZQ5YZSVt1-6" style="edgeStyle=orthogonalEdgeStyle;rounded=0;orthogonalLoop=1;jettySize=auto;html=1;endArrow=classic;endFill=1;strokeColor=#FF3333;" edge="1" parent="1">
          <mxGeometry relative="1" as="geometry">
            <mxPoint x="280" y="696.76" as="sourcePoint" />
            <mxPoint x="325" y="696.76" as="targetPoint" />
            <Array as="points">
              <mxPoint x="290" y="696.76" />
              <mxPoint x="290" y="696.76" />
            </Array>
          </mxGeometry>
        </mxCell>
        <mxCell id="gDA72CK2YQvZQ5YZSVt1-7" style="edgeStyle=orthogonalEdgeStyle;rounded=0;orthogonalLoop=1;jettySize=auto;html=1;exitX=1;exitY=0.75;exitDx=0;exitDy=0;entryX=0;entryY=0.75;entryDx=0;entryDy=0;" edge="1" parent="1" source="gDA72CK2YQvZQ5YZSVt1-8" target="gDA72CK2YQvZQ5YZSVt1-14">
          <mxGeometry relative="1" as="geometry" />
        </mxCell>
        <mxCell id="gDA72CK2YQvZQ5YZSVt1-8" value="&lt;b&gt;X1&lt;/b&gt;" style="rounded=1;whiteSpace=wrap;html=1;" vertex="1" parent="1">
          <mxGeometry x="275" y="161" width="60" height="30" as="geometry" />
        </mxCell>
        <mxCell id="gDA72CK2YQvZQ5YZSVt1-9" style="edgeStyle=orthogonalEdgeStyle;rounded=0;orthogonalLoop=1;jettySize=auto;html=1;exitX=0;exitY=0.5;exitDx=0;exitDy=0;entryX=1;entryY=0.75;entryDx=0;entryDy=0;" edge="1" parent="1" source="gDA72CK2YQvZQ5YZSVt1-14" target="gDA72CK2YQvZQ5YZSVt1-25">
          <mxGeometry relative="1" as="geometry">
            <Array as="points">
              <mxPoint x="360" y="147" />
              <mxPoint x="360" y="133" />
              <mxPoint x="335" y="133" />
            </Array>
          </mxGeometry>
        </mxCell>
        <mxCell id="gDA72CK2YQvZQ5YZSVt1-10" style="edgeStyle=orthogonalEdgeStyle;rounded=0;orthogonalLoop=1;jettySize=auto;html=1;exitX=0;exitY=0.5;exitDx=0;exitDy=0;entryX=1;entryY=0.25;entryDx=0;entryDy=0;" edge="1" parent="1" source="gDA72CK2YQvZQ5YZSVt1-14" target="gDA72CK2YQvZQ5YZSVt1-8">
          <mxGeometry relative="1" as="geometry">
            <mxPoint x="340" y="176" as="targetPoint" />
            <Array as="points">
              <mxPoint x="360" y="147" />
              <mxPoint x="360" y="169" />
            </Array>
          </mxGeometry>
        </mxCell>
        <mxCell id="gDA72CK2YQvZQ5YZSVt1-11" value="b1" style="edgeLabel;html=1;align=center;verticalAlign=middle;resizable=0;points=[];" vertex="1" connectable="0" parent="gDA72CK2YQvZQ5YZSVt1-10">
          <mxGeometry x="0.0318" relative="1" as="geometry">
            <mxPoint as="offset" />
          </mxGeometry>
        </mxCell>
        <mxCell id="gDA72CK2YQvZQ5YZSVt1-12" style="edgeStyle=orthogonalEdgeStyle;rounded=0;orthogonalLoop=1;jettySize=auto;html=1;entryX=1;entryY=0.5;entryDx=0;entryDy=0;endArrow=classic;endFill=1;exitX=0;exitY=0.25;exitDx=0;exitDy=0;" edge="1" parent="1" source="gDA72CK2YQvZQ5YZSVt1-14" target="gDA72CK2YQvZQ5YZSVt1-25">
          <mxGeometry relative="1" as="geometry">
            <mxPoint x="440" y="125" as="sourcePoint" />
            <Array as="points">
              <mxPoint x="400" y="139" />
              <mxPoint x="400" y="125" />
            </Array>
          </mxGeometry>
        </mxCell>
        <mxCell id="gDA72CK2YQvZQ5YZSVt1-13" value="c1" style="edgeLabel;html=1;align=center;verticalAlign=middle;resizable=0;points=[];" vertex="1" connectable="0" parent="gDA72CK2YQvZQ5YZSVt1-12">
          <mxGeometry x="0.6374" y="-1" relative="1" as="geometry">
            <mxPoint as="offset" />
          </mxGeometry>
        </mxCell>
        <mxCell id="gDA72CK2YQvZQ5YZSVt1-62" style="edgeStyle=orthogonalEdgeStyle;rounded=0;orthogonalLoop=1;jettySize=auto;html=1;exitX=0.995;exitY=0.117;exitDx=0;exitDy=0;entryX=0;entryY=0.25;entryDx=0;entryDy=0;exitPerimeter=0;" edge="1" parent="1" source="gDA72CK2YQvZQ5YZSVt1-22" target="gDA72CK2YQvZQ5YZSVt1-59">
          <mxGeometry relative="1" as="geometry">
            <Array as="points">
              <mxPoint x="570" y="216" />
              <mxPoint x="570" y="250" />
            </Array>
          </mxGeometry>
        </mxCell>
        <mxCell id="gDA72CK2YQvZQ5YZSVt1-71" value="h1" style="edgeLabel;html=1;align=center;verticalAlign=middle;resizable=0;points=[];" vertex="1" connectable="0" parent="gDA72CK2YQvZQ5YZSVt1-62">
          <mxGeometry x="0.6131" y="1" relative="1" as="geometry">
            <mxPoint as="offset" />
          </mxGeometry>
        </mxCell>
        <mxCell id="gDA72CK2YQvZQ5YZSVt1-14" value="&lt;b&gt;XK1&lt;/b&gt;" style="rounded=1;whiteSpace=wrap;html=1;" vertex="1" parent="1">
          <mxGeometry x="427" y="132" width="60" height="30" as="geometry" />
        </mxCell>
        <mxCell id="gDA72CK2YQvZQ5YZSVt1-15" style="edgeStyle=orthogonalEdgeStyle;rounded=0;orthogonalLoop=1;jettySize=auto;html=1;exitX=1;exitY=0.5;exitDx=0;exitDy=0;entryX=0;entryY=0.75;entryDx=0;entryDy=0;" edge="1" parent="1" source="gDA72CK2YQvZQ5YZSVt1-20" target="gDA72CK2YQvZQ5YZSVt1-22">
          <mxGeometry relative="1" as="geometry">
            <mxPoint x="335" y="259.5" as="sourcePoint" />
            <Array as="points">
              <mxPoint x="390" y="248" />
              <mxPoint x="390" y="234" />
            </Array>
          </mxGeometry>
        </mxCell>
        <mxCell id="gDA72CK2YQvZQ5YZSVt1-16" style="edgeStyle=orthogonalEdgeStyle;rounded=0;orthogonalLoop=1;jettySize=auto;html=1;exitX=1;exitY=0.5;exitDx=0;exitDy=0;entryX=0;entryY=0.25;entryDx=0;entryDy=0;" edge="1" parent="1" source="gDA72CK2YQvZQ5YZSVt1-20" target="gDA72CK2YQvZQ5YZSVt1-28">
          <mxGeometry relative="1" as="geometry">
            <mxPoint x="335" y="259.5" as="sourcePoint" />
            <Array as="points">
              <mxPoint x="390" y="248" />
              <mxPoint x="390" y="269" />
            </Array>
          </mxGeometry>
        </mxCell>
        <mxCell id="gDA72CK2YQvZQ5YZSVt1-17" value="f1" style="edgeLabel;html=1;align=center;verticalAlign=middle;resizable=0;points=[];" vertex="1" connectable="0" parent="gDA72CK2YQvZQ5YZSVt1-16">
          <mxGeometry x="-0.3193" relative="1" as="geometry">
            <mxPoint as="offset" />
          </mxGeometry>
        </mxCell>
        <mxCell id="gDA72CK2YQvZQ5YZSVt1-18" style="edgeStyle=orthogonalEdgeStyle;rounded=0;orthogonalLoop=1;jettySize=auto;html=1;exitX=1;exitY=0.75;exitDx=0;exitDy=0;entryX=0;entryY=0.5;entryDx=0;entryDy=0;endArrow=classic;endFill=1;" edge="1" parent="1" source="gDA72CK2YQvZQ5YZSVt1-20" target="gDA72CK2YQvZQ5YZSVt1-28">
          <mxGeometry relative="1" as="geometry" />
        </mxCell>
        <mxCell id="gDA72CK2YQvZQ5YZSVt1-19" value="g1" style="edgeLabel;html=1;align=center;verticalAlign=middle;resizable=0;points=[];" vertex="1" connectable="0" parent="gDA72CK2YQvZQ5YZSVt1-18">
          <mxGeometry x="0.4626" relative="1" as="geometry">
            <mxPoint as="offset" />
          </mxGeometry>
        </mxCell>
        <mxCell id="gDA72CK2YQvZQ5YZSVt1-20" value="&lt;b&gt;X&lt;sub&gt;p&lt;/sub&gt;P1&lt;/b&gt;" style="rounded=1;whiteSpace=wrap;html=1;" vertex="1" parent="1">
          <mxGeometry x="275" y="233" width="60" height="30" as="geometry" />
        </mxCell>
        <mxCell id="gDA72CK2YQvZQ5YZSVt1-21" style="edgeStyle=orthogonalEdgeStyle;rounded=0;orthogonalLoop=1;jettySize=auto;html=1;exitX=0;exitY=0.25;exitDx=0;exitDy=0;entryX=1;entryY=0.25;entryDx=0;entryDy=0;" edge="1" parent="1" source="gDA72CK2YQvZQ5YZSVt1-22" target="gDA72CK2YQvZQ5YZSVt1-20">
          <mxGeometry relative="1" as="geometry">
            <mxPoint x="335" y="245" as="targetPoint" />
            <Array as="points">
              <mxPoint x="360" y="219" />
              <mxPoint x="360" y="241" />
              <mxPoint x="335" y="241" />
            </Array>
          </mxGeometry>
        </mxCell>
        <mxCell id="gDA72CK2YQvZQ5YZSVt1-64" style="edgeStyle=orthogonalEdgeStyle;rounded=0;orthogonalLoop=1;jettySize=auto;html=1;exitX=1;exitY=0.5;exitDx=0;exitDy=0;entryX=-0.003;entryY=0.191;entryDx=0;entryDy=0;entryPerimeter=0;" edge="1" parent="1" source="gDA72CK2YQvZQ5YZSVt1-22" target="gDA72CK2YQvZQ5YZSVt1-60">
          <mxGeometry relative="1" as="geometry">
            <mxPoint x="590" y="325" as="targetPoint" />
            <Array as="points">
              <mxPoint x="530" y="227" />
              <mxPoint x="530" y="316" />
              <mxPoint x="610" y="316" />
            </Array>
          </mxGeometry>
        </mxCell>
        <mxCell id="gDA72CK2YQvZQ5YZSVt1-75" value="m1" style="edgeLabel;html=1;align=center;verticalAlign=middle;resizable=0;points=[];" vertex="1" connectable="0" parent="gDA72CK2YQvZQ5YZSVt1-64">
          <mxGeometry x="-0.0363" relative="1" as="geometry">
            <mxPoint as="offset" />
          </mxGeometry>
        </mxCell>
        <mxCell id="gDA72CK2YQvZQ5YZSVt1-22" value="&lt;b&gt;X1&lt;sub&gt;p&lt;/sub&gt;&lt;/b&gt;" style="rounded=1;whiteSpace=wrap;html=1;" vertex="1" parent="1">
          <mxGeometry x="427" y="212" width="60" height="30" as="geometry" />
        </mxCell>
        <mxCell id="gDA72CK2YQvZQ5YZSVt1-23" style="edgeStyle=orthogonalEdgeStyle;rounded=0;orthogonalLoop=1;jettySize=auto;html=1;exitX=1;exitY=0.25;exitDx=0;exitDy=0;entryX=0;entryY=0.75;entryDx=0;entryDy=0;" edge="1" parent="1" source="gDA72CK2YQvZQ5YZSVt1-25" target="gDA72CK2YQvZQ5YZSVt1-14">
          <mxGeometry relative="1" as="geometry">
            <mxPoint x="500" y="110" as="targetPoint" />
          </mxGeometry>
        </mxCell>
        <mxCell id="gDA72CK2YQvZQ5YZSVt1-24" value="a1" style="edgeLabel;html=1;align=center;verticalAlign=middle;resizable=0;points=[];" vertex="1" connectable="0" parent="gDA72CK2YQvZQ5YZSVt1-23">
          <mxGeometry x="0.4353" y="1" relative="1" as="geometry">
            <mxPoint as="offset" />
          </mxGeometry>
        </mxCell>
        <mxCell id="gDA72CK2YQvZQ5YZSVt1-25" value="&lt;b&gt;K1&lt;/b&gt;" style="rounded=1;whiteSpace=wrap;html=1;" vertex="1" parent="1">
          <mxGeometry x="275" y="110" width="60" height="30" as="geometry" />
        </mxCell>
        <mxCell id="gDA72CK2YQvZQ5YZSVt1-26" style="edgeStyle=orthogonalEdgeStyle;rounded=0;orthogonalLoop=1;jettySize=auto;html=1;entryX=1;entryY=0.25;entryDx=0;entryDy=0;exitX=0;exitY=0.75;exitDx=0;exitDy=0;" edge="1" parent="1" source="gDA72CK2YQvZQ5YZSVt1-28" target="gDA72CK2YQvZQ5YZSVt1-20">
          <mxGeometry relative="1" as="geometry">
            <mxPoint x="427" y="312" as="sourcePoint" />
            <mxPoint x="335" y="244.5" as="targetPoint" />
            <Array as="points">
              <mxPoint x="360" y="284" />
              <mxPoint x="360" y="241" />
              <mxPoint x="335" y="241" />
            </Array>
          </mxGeometry>
        </mxCell>
        <mxCell id="gDA72CK2YQvZQ5YZSVt1-27" value="e1" style="edgeLabel;html=1;align=center;verticalAlign=middle;resizable=0;points=[];" vertex="1" connectable="0" parent="gDA72CK2YQvZQ5YZSVt1-26">
          <mxGeometry x="0.7663" y="-1" relative="1" as="geometry">
            <mxPoint as="offset" />
          </mxGeometry>
        </mxCell>
        <mxCell id="gDA72CK2YQvZQ5YZSVt1-28" value="&lt;b&gt;P1&lt;/b&gt;" style="rounded=1;whiteSpace=wrap;html=1;" vertex="1" parent="1">
          <mxGeometry x="427" y="262" width="60" height="30" as="geometry" />
        </mxCell>
        <mxCell id="gDA72CK2YQvZQ5YZSVt1-29" style="edgeStyle=orthogonalEdgeStyle;rounded=0;orthogonalLoop=1;jettySize=auto;html=1;strokeColor=#0000CC;exitX=0.5;exitY=1;exitDx=0;exitDy=0;entryX=0.5;entryY=0;entryDx=0;entryDy=0;" edge="1" parent="1" source="gDA72CK2YQvZQ5YZSVt1-14" target="gDA72CK2YQvZQ5YZSVt1-22">
          <mxGeometry relative="1" as="geometry">
            <Array as="points" />
            <mxPoint x="402" y="367.4999999999999" as="sourcePoint" />
            <mxPoint x="560" y="220" as="targetPoint" />
          </mxGeometry>
        </mxCell>
        <mxCell id="gDA72CK2YQvZQ5YZSVt1-30" value="c1" style="edgeLabel;html=1;align=center;verticalAlign=middle;resizable=0;points=[];" vertex="1" connectable="0" parent="gDA72CK2YQvZQ5YZSVt1-29">
          <mxGeometry x="-0.1247" relative="1" as="geometry">
            <mxPoint as="offset" />
          </mxGeometry>
        </mxCell>
        <mxCell id="gDA72CK2YQvZQ5YZSVt1-31" style="edgeStyle=orthogonalEdgeStyle;rounded=0;orthogonalLoop=1;jettySize=auto;html=1;exitX=0.5;exitY=0;exitDx=0;exitDy=0;entryX=0.5;entryY=1;entryDx=0;entryDy=0;strokeColor=#FF3333;" edge="1" parent="1" source="gDA72CK2YQvZQ5YZSVt1-20" target="gDA72CK2YQvZQ5YZSVt1-8">
          <mxGeometry relative="1" as="geometry">
            <mxPoint x="220" y="220" as="sourcePoint" />
            <mxPoint x="220" y="300" as="targetPoint" />
          </mxGeometry>
        </mxCell>
        <mxCell id="gDA72CK2YQvZQ5YZSVt1-32" value="&lt;span style=&quot;font-size: 9.166666030883789px&quot;&gt;g1&lt;/span&gt;" style="edgeLabel;html=1;align=center;verticalAlign=middle;resizable=0;points=[];" vertex="1" connectable="0" parent="gDA72CK2YQvZQ5YZSVt1-31">
          <mxGeometry x="-0.1417" relative="1" as="geometry">
            <mxPoint as="offset" />
          </mxGeometry>
        </mxCell>
        <mxCell id="gDA72CK2YQvZQ5YZSVt1-33" style="edgeStyle=orthogonalEdgeStyle;rounded=0;orthogonalLoop=1;jettySize=auto;html=1;exitX=1;exitY=0.75;exitDx=0;exitDy=0;entryX=0;entryY=0.75;entryDx=0;entryDy=0;" edge="1" parent="1" source="gDA72CK2YQvZQ5YZSVt1-34" target="gDA72CK2YQvZQ5YZSVt1-40">
          <mxGeometry relative="1" as="geometry" />
        </mxCell>
        <mxCell id="gDA72CK2YQvZQ5YZSVt1-34" value="&lt;b&gt;X2&lt;/b&gt;" style="rounded=1;whiteSpace=wrap;html=1;" vertex="1" parent="1">
          <mxGeometry x="275" y="391" width="60" height="30" as="geometry" />
        </mxCell>
        <mxCell id="gDA72CK2YQvZQ5YZSVt1-35" style="edgeStyle=orthogonalEdgeStyle;rounded=0;orthogonalLoop=1;jettySize=auto;html=1;exitX=0;exitY=0.5;exitDx=0;exitDy=0;entryX=1;entryY=0.75;entryDx=0;entryDy=0;" edge="1" parent="1" source="gDA72CK2YQvZQ5YZSVt1-40" target="gDA72CK2YQvZQ5YZSVt1-51">
          <mxGeometry relative="1" as="geometry">
            <Array as="points">
              <mxPoint x="360" y="377" />
              <mxPoint x="360" y="363" />
              <mxPoint x="335" y="363" />
            </Array>
          </mxGeometry>
        </mxCell>
        <mxCell id="gDA72CK2YQvZQ5YZSVt1-36" style="edgeStyle=orthogonalEdgeStyle;rounded=0;orthogonalLoop=1;jettySize=auto;html=1;exitX=0;exitY=0.5;exitDx=0;exitDy=0;entryX=1;entryY=0.25;entryDx=0;entryDy=0;" edge="1" parent="1" source="gDA72CK2YQvZQ5YZSVt1-40" target="gDA72CK2YQvZQ5YZSVt1-34">
          <mxGeometry relative="1" as="geometry">
            <mxPoint x="340" y="406" as="targetPoint" />
            <Array as="points">
              <mxPoint x="360" y="377" />
              <mxPoint x="360" y="399" />
            </Array>
          </mxGeometry>
        </mxCell>
        <mxCell id="gDA72CK2YQvZQ5YZSVt1-37" value="b2" style="edgeLabel;html=1;align=center;verticalAlign=middle;resizable=0;points=[];" vertex="1" connectable="0" parent="gDA72CK2YQvZQ5YZSVt1-36">
          <mxGeometry x="0.0318" relative="1" as="geometry">
            <mxPoint as="offset" />
          </mxGeometry>
        </mxCell>
        <mxCell id="gDA72CK2YQvZQ5YZSVt1-38" style="edgeStyle=orthogonalEdgeStyle;rounded=0;orthogonalLoop=1;jettySize=auto;html=1;entryX=1;entryY=0.5;entryDx=0;entryDy=0;endArrow=classic;endFill=1;exitX=0;exitY=0.25;exitDx=0;exitDy=0;" edge="1" parent="1" source="gDA72CK2YQvZQ5YZSVt1-40" target="gDA72CK2YQvZQ5YZSVt1-51">
          <mxGeometry relative="1" as="geometry">
            <mxPoint x="440" y="355" as="sourcePoint" />
            <Array as="points">
              <mxPoint x="400" y="369" />
              <mxPoint x="400" y="355" />
            </Array>
          </mxGeometry>
        </mxCell>
        <mxCell id="gDA72CK2YQvZQ5YZSVt1-39" value="c2" style="edgeLabel;html=1;align=center;verticalAlign=middle;resizable=0;points=[];" vertex="1" connectable="0" parent="gDA72CK2YQvZQ5YZSVt1-38">
          <mxGeometry x="0.6374" y="-1" relative="1" as="geometry">
            <mxPoint as="offset" />
          </mxGeometry>
        </mxCell>
        <mxCell id="gDA72CK2YQvZQ5YZSVt1-40" value="&lt;b&gt;XK2&lt;/b&gt;" style="rounded=1;whiteSpace=wrap;html=1;" vertex="1" parent="1">
          <mxGeometry x="427" y="362" width="60" height="30" as="geometry" />
        </mxCell>
        <mxCell id="gDA72CK2YQvZQ5YZSVt1-41" style="edgeStyle=orthogonalEdgeStyle;rounded=0;orthogonalLoop=1;jettySize=auto;html=1;exitX=1;exitY=0.5;exitDx=0;exitDy=0;entryX=0;entryY=0.75;entryDx=0;entryDy=0;" edge="1" parent="1" source="gDA72CK2YQvZQ5YZSVt1-46" target="gDA72CK2YQvZQ5YZSVt1-48">
          <mxGeometry relative="1" as="geometry">
            <mxPoint x="335" y="489.5" as="sourcePoint" />
            <Array as="points">
              <mxPoint x="390" y="478" />
              <mxPoint x="390" y="464" />
            </Array>
          </mxGeometry>
        </mxCell>
        <mxCell id="gDA72CK2YQvZQ5YZSVt1-42" style="edgeStyle=orthogonalEdgeStyle;rounded=0;orthogonalLoop=1;jettySize=auto;html=1;exitX=1;exitY=0.5;exitDx=0;exitDy=0;entryX=0;entryY=0.25;entryDx=0;entryDy=0;" edge="1" parent="1" source="gDA72CK2YQvZQ5YZSVt1-46" target="gDA72CK2YQvZQ5YZSVt1-54">
          <mxGeometry relative="1" as="geometry">
            <mxPoint x="335" y="489.5" as="sourcePoint" />
            <Array as="points">
              <mxPoint x="390" y="478" />
              <mxPoint x="390" y="499" />
            </Array>
          </mxGeometry>
        </mxCell>
        <mxCell id="gDA72CK2YQvZQ5YZSVt1-43" value="f2" style="edgeLabel;html=1;align=center;verticalAlign=middle;resizable=0;points=[];" vertex="1" connectable="0" parent="gDA72CK2YQvZQ5YZSVt1-42">
          <mxGeometry x="-0.3193" relative="1" as="geometry">
            <mxPoint as="offset" />
          </mxGeometry>
        </mxCell>
        <mxCell id="gDA72CK2YQvZQ5YZSVt1-44" style="edgeStyle=orthogonalEdgeStyle;rounded=0;orthogonalLoop=1;jettySize=auto;html=1;exitX=1;exitY=0.75;exitDx=0;exitDy=0;entryX=0;entryY=0.5;entryDx=0;entryDy=0;endArrow=classic;endFill=1;" edge="1" parent="1" source="gDA72CK2YQvZQ5YZSVt1-46" target="gDA72CK2YQvZQ5YZSVt1-54">
          <mxGeometry relative="1" as="geometry" />
        </mxCell>
        <mxCell id="gDA72CK2YQvZQ5YZSVt1-45" value="g2" style="edgeLabel;html=1;align=center;verticalAlign=middle;resizable=0;points=[];" vertex="1" connectable="0" parent="gDA72CK2YQvZQ5YZSVt1-44">
          <mxGeometry x="0.4626" relative="1" as="geometry">
            <mxPoint as="offset" />
          </mxGeometry>
        </mxCell>
        <mxCell id="gDA72CK2YQvZQ5YZSVt1-46" value="&lt;b&gt;X&lt;sub&gt;p&lt;/sub&gt;P2&lt;/b&gt;" style="rounded=1;whiteSpace=wrap;html=1;" vertex="1" parent="1">
          <mxGeometry x="275" y="463" width="60" height="30" as="geometry" />
        </mxCell>
        <mxCell id="gDA72CK2YQvZQ5YZSVt1-47" style="edgeStyle=orthogonalEdgeStyle;rounded=0;orthogonalLoop=1;jettySize=auto;html=1;exitX=0;exitY=0.25;exitDx=0;exitDy=0;entryX=1;entryY=0.25;entryDx=0;entryDy=0;" edge="1" parent="1" source="gDA72CK2YQvZQ5YZSVt1-48" target="gDA72CK2YQvZQ5YZSVt1-46">
          <mxGeometry relative="1" as="geometry">
            <mxPoint x="335" y="475" as="targetPoint" />
            <Array as="points">
              <mxPoint x="360" y="449" />
              <mxPoint x="360" y="471" />
              <mxPoint x="335" y="471" />
            </Array>
          </mxGeometry>
        </mxCell>
        <mxCell id="gDA72CK2YQvZQ5YZSVt1-67" style="edgeStyle=orthogonalEdgeStyle;rounded=0;orthogonalLoop=1;jettySize=auto;html=1;exitX=1.017;exitY=0.633;exitDx=0;exitDy=0;entryX=0;entryY=0.25;entryDx=0;entryDy=0;exitPerimeter=0;" edge="1" parent="1" source="gDA72CK2YQvZQ5YZSVt1-48" target="gDA72CK2YQvZQ5YZSVt1-61">
          <mxGeometry relative="1" as="geometry" />
        </mxCell>
        <mxCell id="gDA72CK2YQvZQ5YZSVt1-73" value="h2" style="edgeLabel;html=1;align=center;verticalAlign=middle;resizable=0;points=[];" vertex="1" connectable="0" parent="gDA72CK2YQvZQ5YZSVt1-67">
          <mxGeometry x="0.6133" y="-1" relative="1" as="geometry">
            <mxPoint as="offset" />
          </mxGeometry>
        </mxCell>
        <mxCell id="gDA72CK2YQvZQ5YZSVt1-69" style="edgeStyle=orthogonalEdgeStyle;rounded=0;orthogonalLoop=1;jettySize=auto;html=1;entryX=0.009;entryY=0.629;entryDx=0;entryDy=0;entryPerimeter=0;exitX=1.001;exitY=0.154;exitDx=0;exitDy=0;exitPerimeter=0;" edge="1" parent="1" source="gDA72CK2YQvZQ5YZSVt1-48" target="gDA72CK2YQvZQ5YZSVt1-60">
          <mxGeometry relative="1" as="geometry">
            <mxPoint x="488" y="450" as="sourcePoint" />
            <Array as="points">
              <mxPoint x="520" y="447" />
              <mxPoint x="520" y="329" />
            </Array>
          </mxGeometry>
        </mxCell>
        <mxCell id="gDA72CK2YQvZQ5YZSVt1-77" value="m2" style="edgeLabel;html=1;align=center;verticalAlign=middle;resizable=0;points=[];" vertex="1" connectable="0" parent="gDA72CK2YQvZQ5YZSVt1-69">
          <mxGeometry x="-0.0639" y="-1" relative="1" as="geometry">
            <mxPoint as="offset" />
          </mxGeometry>
        </mxCell>
        <mxCell id="gDA72CK2YQvZQ5YZSVt1-48" value="&lt;b&gt;X2&lt;sub&gt;p&lt;/sub&gt;&lt;/b&gt;" style="rounded=1;whiteSpace=wrap;html=1;" vertex="1" parent="1">
          <mxGeometry x="427" y="442" width="60" height="30" as="geometry" />
        </mxCell>
        <mxCell id="gDA72CK2YQvZQ5YZSVt1-49" style="edgeStyle=orthogonalEdgeStyle;rounded=0;orthogonalLoop=1;jettySize=auto;html=1;exitX=1;exitY=0.25;exitDx=0;exitDy=0;entryX=0;entryY=0.75;entryDx=0;entryDy=0;" edge="1" parent="1" source="gDA72CK2YQvZQ5YZSVt1-51" target="gDA72CK2YQvZQ5YZSVt1-40">
          <mxGeometry relative="1" as="geometry">
            <mxPoint x="500" y="340" as="targetPoint" />
          </mxGeometry>
        </mxCell>
        <mxCell id="gDA72CK2YQvZQ5YZSVt1-50" value="a2" style="edgeLabel;html=1;align=center;verticalAlign=middle;resizable=0;points=[];" vertex="1" connectable="0" parent="gDA72CK2YQvZQ5YZSVt1-49">
          <mxGeometry x="0.4353" y="1" relative="1" as="geometry">
            <mxPoint as="offset" />
          </mxGeometry>
        </mxCell>
        <mxCell id="gDA72CK2YQvZQ5YZSVt1-51" value="&lt;b&gt;K2&lt;/b&gt;" style="rounded=1;whiteSpace=wrap;html=1;" vertex="1" parent="1">
          <mxGeometry x="275" y="340" width="60" height="30" as="geometry" />
        </mxCell>
        <mxCell id="gDA72CK2YQvZQ5YZSVt1-52" style="edgeStyle=orthogonalEdgeStyle;rounded=0;orthogonalLoop=1;jettySize=auto;html=1;entryX=1;entryY=0.25;entryDx=0;entryDy=0;exitX=0;exitY=0.75;exitDx=0;exitDy=0;" edge="1" parent="1" source="gDA72CK2YQvZQ5YZSVt1-54" target="gDA72CK2YQvZQ5YZSVt1-46">
          <mxGeometry relative="1" as="geometry">
            <mxPoint x="427" y="542" as="sourcePoint" />
            <mxPoint x="335" y="474.5" as="targetPoint" />
            <Array as="points">
              <mxPoint x="360" y="514" />
              <mxPoint x="360" y="471" />
              <mxPoint x="335" y="471" />
            </Array>
          </mxGeometry>
        </mxCell>
        <mxCell id="gDA72CK2YQvZQ5YZSVt1-53" value="e2" style="edgeLabel;html=1;align=center;verticalAlign=middle;resizable=0;points=[];" vertex="1" connectable="0" parent="gDA72CK2YQvZQ5YZSVt1-52">
          <mxGeometry x="0.7663" y="-1" relative="1" as="geometry">
            <mxPoint as="offset" />
          </mxGeometry>
        </mxCell>
        <mxCell id="gDA72CK2YQvZQ5YZSVt1-54" value="&lt;b&gt;P2&lt;/b&gt;" style="rounded=1;whiteSpace=wrap;html=1;" vertex="1" parent="1">
          <mxGeometry x="427" y="492" width="60" height="30" as="geometry" />
        </mxCell>
        <mxCell id="gDA72CK2YQvZQ5YZSVt1-55" style="edgeStyle=orthogonalEdgeStyle;rounded=0;orthogonalLoop=1;jettySize=auto;html=1;strokeColor=#0000CC;exitX=0.5;exitY=1;exitDx=0;exitDy=0;entryX=0.5;entryY=0;entryDx=0;entryDy=0;" edge="1" parent="1" source="gDA72CK2YQvZQ5YZSVt1-40" target="gDA72CK2YQvZQ5YZSVt1-48">
          <mxGeometry relative="1" as="geometry">
            <Array as="points" />
            <mxPoint x="402" y="597.4999999999999" as="sourcePoint" />
            <mxPoint x="560" y="450" as="targetPoint" />
          </mxGeometry>
        </mxCell>
        <mxCell id="gDA72CK2YQvZQ5YZSVt1-56" value="c2" style="edgeLabel;html=1;align=center;verticalAlign=middle;resizable=0;points=[];" vertex="1" connectable="0" parent="gDA72CK2YQvZQ5YZSVt1-55">
          <mxGeometry x="-0.1247" relative="1" as="geometry">
            <mxPoint as="offset" />
          </mxGeometry>
        </mxCell>
        <mxCell id="gDA72CK2YQvZQ5YZSVt1-57" style="edgeStyle=orthogonalEdgeStyle;rounded=0;orthogonalLoop=1;jettySize=auto;html=1;exitX=0.5;exitY=0;exitDx=0;exitDy=0;entryX=0.5;entryY=1;entryDx=0;entryDy=0;strokeColor=#FF3333;" edge="1" parent="1" source="gDA72CK2YQvZQ5YZSVt1-46" target="gDA72CK2YQvZQ5YZSVt1-34">
          <mxGeometry relative="1" as="geometry">
            <mxPoint x="220" y="450" as="sourcePoint" />
            <mxPoint x="220" y="530" as="targetPoint" />
          </mxGeometry>
        </mxCell>
        <mxCell id="gDA72CK2YQvZQ5YZSVt1-58" value="&lt;span style=&quot;font-size: 9.166666030883789px&quot;&gt;g2&lt;/span&gt;" style="edgeLabel;html=1;align=center;verticalAlign=middle;resizable=0;points=[];" vertex="1" connectable="0" parent="gDA72CK2YQvZQ5YZSVt1-57">
          <mxGeometry x="-0.1417" relative="1" as="geometry">
            <mxPoint as="offset" />
          </mxGeometry>
        </mxCell>
        <mxCell id="gDA72CK2YQvZQ5YZSVt1-65" style="edgeStyle=orthogonalEdgeStyle;rounded=0;orthogonalLoop=1;jettySize=auto;html=1;exitX=0;exitY=0.75;exitDx=0;exitDy=0;entryX=1.001;entryY=0.331;entryDx=0;entryDy=0;entryPerimeter=0;" edge="1" parent="1" source="gDA72CK2YQvZQ5YZSVt1-59" target="gDA72CK2YQvZQ5YZSVt1-22">
          <mxGeometry relative="1" as="geometry">
            <Array as="points">
              <mxPoint x="550" y="264" />
              <mxPoint x="550" y="222" />
            </Array>
          </mxGeometry>
        </mxCell>
        <mxCell id="gDA72CK2YQvZQ5YZSVt1-72" value="k1" style="edgeLabel;html=1;align=center;verticalAlign=middle;resizable=0;points=[];" vertex="1" connectable="0" parent="gDA72CK2YQvZQ5YZSVt1-65">
          <mxGeometry x="-0.5979" y="-1" relative="1" as="geometry">
            <mxPoint as="offset" />
          </mxGeometry>
        </mxCell>
        <mxCell id="gDA72CK2YQvZQ5YZSVt1-59" value="&lt;b&gt;X1&lt;sub&gt;p&lt;/sub&gt;&lt;/b&gt;&lt;b&gt;X1&lt;sub&gt;p&lt;/sub&gt;&lt;/b&gt;" style="rounded=1;whiteSpace=wrap;html=1;" vertex="1" parent="1">
          <mxGeometry x="610" y="242" width="60" height="30" as="geometry" />
        </mxCell>
        <mxCell id="gDA72CK2YQvZQ5YZSVt1-66" style="edgeStyle=orthogonalEdgeStyle;rounded=0;orthogonalLoop=1;jettySize=auto;html=1;exitX=-0.005;exitY=0.401;exitDx=0;exitDy=0;entryX=1;entryY=0.75;entryDx=0;entryDy=0;exitPerimeter=0;" edge="1" parent="1" source="gDA72CK2YQvZQ5YZSVt1-60" target="gDA72CK2YQvZQ5YZSVt1-22">
          <mxGeometry relative="1" as="geometry">
            <Array as="points">
              <mxPoint x="520" y="322" />
              <mxPoint x="520" y="235" />
            </Array>
          </mxGeometry>
        </mxCell>
        <mxCell id="gDA72CK2YQvZQ5YZSVt1-76" value="n1" style="edgeLabel;html=1;align=center;verticalAlign=middle;resizable=0;points=[];" vertex="1" connectable="0" parent="gDA72CK2YQvZQ5YZSVt1-66">
          <mxGeometry x="0.004" relative="1" as="geometry">
            <mxPoint as="offset" />
          </mxGeometry>
        </mxCell>
        <mxCell id="gDA72CK2YQvZQ5YZSVt1-70" style="edgeStyle=orthogonalEdgeStyle;rounded=0;orthogonalLoop=1;jettySize=auto;html=1;exitX=-0.006;exitY=0.854;exitDx=0;exitDy=0;entryX=1;entryY=0.344;entryDx=0;entryDy=0;entryPerimeter=0;exitPerimeter=0;" edge="1" parent="1" source="gDA72CK2YQvZQ5YZSVt1-60" target="gDA72CK2YQvZQ5YZSVt1-48">
          <mxGeometry relative="1" as="geometry">
            <Array as="points">
              <mxPoint x="530" y="336" />
              <mxPoint x="530" y="452" />
            </Array>
          </mxGeometry>
        </mxCell>
        <mxCell id="gDA72CK2YQvZQ5YZSVt1-78" value="n2" style="edgeLabel;html=1;align=center;verticalAlign=middle;resizable=0;points=[];" vertex="1" connectable="0" parent="gDA72CK2YQvZQ5YZSVt1-70">
          <mxGeometry x="0.1002" relative="1" as="geometry">
            <mxPoint as="offset" />
          </mxGeometry>
        </mxCell>
        <mxCell id="gDA72CK2YQvZQ5YZSVt1-60" value="&lt;b&gt;X1&lt;sub&gt;p&lt;/sub&gt;&lt;/b&gt;&lt;b&gt;X2&lt;sub&gt;p&lt;/sub&gt;&lt;/b&gt;" style="rounded=1;whiteSpace=wrap;html=1;" vertex="1" parent="1">
          <mxGeometry x="610" y="310" width="60" height="30" as="geometry" />
        </mxCell>
        <mxCell id="gDA72CK2YQvZQ5YZSVt1-68" style="edgeStyle=orthogonalEdgeStyle;rounded=0;orthogonalLoop=1;jettySize=auto;html=1;exitX=0;exitY=0.75;exitDx=0;exitDy=0;entryX=1.004;entryY=0.822;entryDx=0;entryDy=0;entryPerimeter=0;" edge="1" parent="1" source="gDA72CK2YQvZQ5YZSVt1-61" target="gDA72CK2YQvZQ5YZSVt1-48">
          <mxGeometry relative="1" as="geometry">
            <Array as="points">
              <mxPoint x="570" y="413" />
              <mxPoint x="570" y="467" />
              <mxPoint x="487" y="467" />
            </Array>
          </mxGeometry>
        </mxCell>
        <mxCell id="gDA72CK2YQvZQ5YZSVt1-74" value="k2" style="edgeLabel;html=1;align=center;verticalAlign=middle;resizable=0;points=[];" vertex="1" connectable="0" parent="gDA72CK2YQvZQ5YZSVt1-68">
          <mxGeometry x="-0.8172" relative="1" as="geometry">
            <mxPoint as="offset" />
          </mxGeometry>
        </mxCell>
        <mxCell id="gDA72CK2YQvZQ5YZSVt1-61" value="&lt;b&gt;X2&lt;sub&gt;p&lt;/sub&gt;&lt;/b&gt;&lt;b&gt;X2&lt;sub&gt;p&lt;/sub&gt;&lt;/b&gt;" style="rounded=1;whiteSpace=wrap;html=1;" vertex="1" parent="1">
          <mxGeometry x="610" y="391" width="60" height="30" as="geometry" />
        </mxCell>
      </root>
    </mxGraphModel>
  </diagram>
</mxfile>
